<?xml version="1.0" encoding="utf-8"?>
<!-- Generator: Adobe Illustrator 16.0.0, SVG Export Plug-In . SVG Version: 6.00 Build 0)  -->
<!DOCTYPE svg PUBLIC "-//W3C//DTD SVG 1.1//EN" "http://www.w3.org/Graphics/SVG/1.1/DTD/svg11.dtd">
<svg version="1.1" id="Calque_1" xmlns="http://www.w3.org/2000/svg" xmlns:xlink="http://www.w3.org/1999/xlink" x="0px" y="0px"
	 width="1190.074px" height="36.248px" viewBox="0 0 1190.074 36.248" enable-background="new 0 0 1190.074 36.248"
	 xml:space="preserve">
<g id="Droite_2_">
	<line fill="#FFFFFF" stroke="#E94A53" stroke-width="2" stroke-miterlimit="10" x1="1184.97" y1="0" x2="1184.97" y2="5.71"/>
	
		<line opacity="0.9" fill="none" stroke="#FFFFFF" stroke-width="2" stroke-miterlimit="10" x1="1176.914" y1="0.17" x2="1176.914" y2="2.318"/>
	<line fill="#FFFFFF" stroke="#E94A53" stroke-width="2" stroke-miterlimit="10" x1="1168.859" y1="0" x2="1168.859" y2="5.71"/>
	
		<line opacity="0.9" fill="none" stroke="#FFFFFF" stroke-width="2" stroke-miterlimit="10" x1="1160.805" y1="0.17" x2="1160.805" y2="2.318"/>
	<line fill="#FFFFFF" stroke="#E94A53" stroke-width="2" stroke-miterlimit="10" x1="1152.75" y1="0" x2="1152.75" y2="5.71"/>
	
		<line opacity="0.9" fill="none" stroke="#FFFFFF" stroke-width="2" stroke-miterlimit="10" x1="1144.695" y1="0.17" x2="1144.695" y2="2.318"/>
	<line fill="#FFFFFF" stroke="#E94A53" stroke-width="2" stroke-miterlimit="10" x1="1136.64" y1="0" x2="1136.64" y2="5.71"/>
	
		<line opacity="0.9" fill="none" stroke="#FFFFFF" stroke-width="2" stroke-miterlimit="10" x1="1128.585" y1="0.17" x2="1128.585" y2="2.318"/>
	<line fill="#FFFFFF" stroke="#E94A53" stroke-width="2" stroke-miterlimit="10" x1="1120.53" y1="0" x2="1120.53" y2="5.71"/>
	
		<line opacity="0.9" fill="none" stroke="#FFFFFF" stroke-width="2" stroke-miterlimit="10" x1="1112.475" y1="0.17" x2="1112.475" y2="2.318"/>
	<line fill="#FFFFFF" stroke="#E94A53" stroke-width="2" stroke-miterlimit="10" x1="1104.42" y1="0" x2="1104.42" y2="5.71"/>
	
		<line opacity="0.9" fill="none" stroke="#FFFFFF" stroke-width="2" stroke-miterlimit="10" x1="1096.365" y1="0.17" x2="1096.365" y2="2.318"/>
	<line fill="#FFFFFF" stroke="#E94A53" stroke-width="2" stroke-miterlimit="10" x1="1088.311" y1="0" x2="1088.311" y2="5.71"/>
	
		<line opacity="0.9" fill="none" stroke="#FFFFFF" stroke-width="2" stroke-miterlimit="10" x1="1080.255" y1="0.17" x2="1080.255" y2="2.318"/>
	<line fill="#FFFFFF" stroke="#E94A53" stroke-width="2" stroke-miterlimit="10" x1="1072.2" y1="0" x2="1072.2" y2="5.71"/>
	
		<line opacity="0.9" fill="none" stroke="#FFFFFF" stroke-width="2" stroke-miterlimit="10" x1="1064.146" y1="0.17" x2="1064.146" y2="2.318"/>
	<line fill="#FFFFFF" stroke="#E94A53" stroke-width="2" stroke-miterlimit="10" x1="1056.09" y1="0" x2="1056.09" y2="5.71"/>
	
		<line opacity="0.9" fill="none" stroke="#FFFFFF" stroke-width="2" stroke-miterlimit="10" x1="1048.035" y1="0.17" x2="1048.035" y2="2.318"/>
	<line fill="#FFFFFF" stroke="#E94A53" stroke-width="2" stroke-miterlimit="10" x1="1039.98" y1="0" x2="1039.98" y2="5.71"/>
	
		<line opacity="0.9" fill="none" stroke="#FFFFFF" stroke-width="2" stroke-miterlimit="10" x1="1031.926" y1="0.17" x2="1031.926" y2="2.318"/>
	
		<line opacity="0.9" fill="none" stroke="#FFFFFF" stroke-width="2" stroke-miterlimit="10" x1="1023.871" y1="0.17" x2="1023.871" y2="2.318"/>
	
		<line opacity="0.9" fill="none" stroke="#FFFFFF" stroke-width="2" stroke-miterlimit="10" x1="1015.815" y1="0.17" x2="1015.815" y2="2.318"/>
	
		<line opacity="0.9" fill="none" stroke="#FFFFFF" stroke-width="2" stroke-miterlimit="10" x1="1007.761" y1="0.17" x2="1007.761" y2="2.318"/>
	<line fill="#FFFFFF" stroke="#E94A53" stroke-width="2" stroke-miterlimit="10" x1="999.706" y1="0" x2="999.706" y2="5.71"/>
	
		<line opacity="0.9" fill="none" stroke="#FFFFFF" stroke-width="2" stroke-miterlimit="10" x1="991.65" y1="0.17" x2="991.65" y2="2.318"/>
	
		<line opacity="0.9" fill="none" stroke="#FFFFFF" stroke-width="2" stroke-miterlimit="10" x1="983.596" y1="0.17" x2="983.596" y2="2.318"/>
	
		<line opacity="0.9" fill="none" stroke="#FFFFFF" stroke-width="2" stroke-miterlimit="10" x1="975.541" y1="0.17" x2="975.541" y2="2.318"/>
	
		<line opacity="0.9" fill="none" stroke="#FFFFFF" stroke-width="2" stroke-miterlimit="10" x1="967.486" y1="0.17" x2="967.486" y2="2.318"/>
	<line fill="#FFFFFF" stroke="#E94A53" stroke-width="2" stroke-miterlimit="10" x1="959.431" y1="0" x2="959.431" y2="5.71"/>
	<line fill="#FFFFFF" stroke="#6565AC" stroke-width="2" stroke-miterlimit="10" x1="951.376" y1="0.17" x2="951.376" y2="2.318"/>
	
		<line opacity="0.9" fill="none" stroke="#FFFFFF" stroke-width="2" stroke-miterlimit="10" x1="943.321" y1="0.17" x2="943.321" y2="2.318"/>
	<line fill="#FFFFFF" stroke="#6565AC" stroke-width="2" stroke-miterlimit="10" x1="935.267" y1="0" x2="935.267" y2="5.71"/>
	
		<line opacity="0.9" fill="none" stroke="#FFFFFF" stroke-width="2" stroke-miterlimit="10" x1="927.211" y1="0.17" x2="927.211" y2="2.318"/>
	<line fill="#FFFFFF" stroke="#6565AC" stroke-width="2" stroke-miterlimit="10" x1="919.156" y1="0" x2="919.156" y2="5.71"/>
	
		<line opacity="0.9" fill="none" stroke="#FFFFFF" stroke-width="2" stroke-miterlimit="10" x1="911.102" y1="0.17" x2="911.102" y2="2.318"/>
	<line fill="#FFFFFF" stroke="#6565AC" stroke-width="2" stroke-miterlimit="10" x1="903.046" y1="0" x2="903.046" y2="5.71"/>
	
		<line opacity="0.9" fill="none" stroke="#FFFFFF" stroke-width="2" stroke-miterlimit="10" x1="894.991" y1="0.17" x2="894.991" y2="2.318"/>
	<line fill="#FFFFFF" stroke="#6565AC" stroke-width="2" stroke-miterlimit="10" x1="886.937" y1="0" x2="886.937" y2="5.71"/>
	
		<line opacity="0.9" fill="none" stroke="#FFFFFF" stroke-width="2" stroke-miterlimit="10" x1="878.882" y1="0.17" x2="878.882" y2="2.318"/>
	<line fill="#FFFFFF" stroke="#6565AC" stroke-width="2" stroke-miterlimit="10" x1="870.826" y1="0" x2="870.826" y2="5.71"/>
	
		<line opacity="0.9" fill="none" stroke="#FFFFFF" stroke-width="2" stroke-miterlimit="10" x1="862.771" y1="0.17" x2="862.771" y2="2.318"/>
	
		<line opacity="0.9" fill="none" stroke="#FFFFFF" stroke-width="2" stroke-miterlimit="10" x1="854.717" y1="0.17" x2="854.717" y2="2.318"/>
	
		<line opacity="0.9" fill="none" stroke="#FFFFFF" stroke-width="2" stroke-miterlimit="10" x1="846.662" y1="0.17" x2="846.662" y2="2.318"/>
	
		<line opacity="0.9" fill="none" stroke="#FFFFFF" stroke-width="2" stroke-miterlimit="10" x1="838.606" y1="0.17" x2="838.606" y2="2.318"/>
	<line fill="#FFFFFF" stroke="#6565AC" stroke-width="2" stroke-miterlimit="10" x1="830.552" y1="0" x2="830.552" y2="5.71"/>
	
		<line opacity="0.9" fill="none" stroke="#FFFFFF" stroke-width="2" stroke-miterlimit="10" x1="822.497" y1="0.17" x2="822.497" y2="2.318"/>
	
		<line opacity="0.9" fill="none" stroke="#FFFFFF" stroke-width="2" stroke-miterlimit="10" x1="814.441" y1="0.17" x2="814.441" y2="2.318"/>
	
		<line opacity="0.9" fill="none" stroke="#FFFFFF" stroke-width="2" stroke-miterlimit="10" x1="806.387" y1="0.17" x2="806.387" y2="2.318"/>
	
		<line opacity="0.9" fill="none" stroke="#FFFFFF" stroke-width="2" stroke-miterlimit="10" x1="798.332" y1="0.17" x2="798.332" y2="2.318"/>
	<line fill="#FFFFFF" stroke="#6565AC" stroke-width="2" stroke-miterlimit="10" x1="790.277" y1="0" x2="790.277" y2="5.71"/>
	<line fill="none" stroke="#84A45B" stroke-width="2" stroke-miterlimit="10" x1="766.067" y1="0" x2="766.067" y2="2.148"/>
	
		<line opacity="0" fill="none" stroke="#84A45B" stroke-width="2" stroke-miterlimit="10" x1="758.012" y1="0" x2="758.012" y2="2.148"/>
	<line fill="none" stroke="#84A45B" stroke-width="2" stroke-miterlimit="10" x1="749.957" y1="0" x2="749.957" y2="2.148"/>
	
		<line opacity="0" fill="none" stroke="#84A45B" stroke-width="2" stroke-miterlimit="10" x1="741.902" y1="0" x2="741.902" y2="2.148"/>
	<line fill="none" stroke="#84A45B" stroke-width="2" stroke-miterlimit="10" x1="733.848" y1="0" x2="733.848" y2="2.148"/>
	
		<line opacity="0" fill="none" stroke="#84A45B" stroke-width="2" stroke-miterlimit="10" x1="725.792" y1="0" x2="725.792" y2="2.148"/>
	<line fill="none" stroke="#84A45B" stroke-width="2" stroke-miterlimit="10" x1="717.737" y1="0" x2="717.737" y2="2.148"/>
	
		<line opacity="0" fill="none" stroke="#84A45B" stroke-width="2" stroke-miterlimit="10" x1="709.683" y1="0" x2="709.683" y2="2.148"/>
	<line fill="none" stroke="#84A45B" stroke-width="2" stroke-miterlimit="10" x1="701.628" y1="0" x2="701.628" y2="2.148"/>
	
		<line opacity="0" fill="none" stroke="#84A45B" stroke-width="2" stroke-miterlimit="10" x1="693.572" y1="0" x2="693.572" y2="2.148"/>
	<line fill="none" stroke="#84A45B" stroke-width="2" stroke-miterlimit="10" x1="685.518" y1="0" x2="685.518" y2="2.148"/>
	
		<line opacity="0" fill="none" stroke="#84A45B" stroke-width="2" stroke-miterlimit="10" x1="677.463" y1="0" x2="677.463" y2="2.148"/>
	<line fill="none" stroke="#84A45B" stroke-width="2" stroke-miterlimit="10" x1="669.408" y1="0" x2="669.408" y2="5.71"/>
	<circle fill="none" stroke="#84A45B" stroke-miterlimit="10" cx="669.507" cy="20.721" r="14.773"/>
	<circle fill="none" stroke="#6565AC" stroke-miterlimit="10" cx="790.277" cy="20.721" r="14.773"/>
	<circle fill="none" stroke="#E94A53" stroke-miterlimit="10" cx="960.02" cy="20.721" r="14.773"/>
	<text transform="matrix(1 0 0 1 1166.1201 27.2256)" fill="#E94A53" font-family="'BebasNeue'" font-size="16.1099">5</text>
	<text transform="matrix(1 0 0 1 1133.4512 27.2256)" fill="#E94A53" font-family="'BebasNeue'" font-size="16.1099">4</text>
	<text transform="matrix(1 0 0 1 1101.5361 27.2256)" fill="#E94A53" font-family="'BebasNeue'" font-size="16.1099">3</text>
	<text transform="matrix(1 0 0 1 1069.2363 27.2256)" fill="#E94A53" font-family="'BebasNeue'" font-size="16.1099">2</text>
	<text transform="matrix(1 0 0 1 1036.9434 27.2256)" fill="#E94A53" font-family="'BebasNeue'" font-size="16.1099">1</text>
	<text transform="matrix(1 0 0 1 956.8301 27.2256)" fill="#E94A53" font-family="'BebasNeue'" font-size="16.1099">0</text>
	<text transform="matrix(1 0 0 1 932.665 27.2256)" fill="#6565AC" font-family="'BebasNeue'" font-size="16.1099">3</text>
	<text transform="matrix(1 0 0 1 899.8555 27.2256)" fill="#6565AC" font-family="'BebasNeue'" font-size="16.1099">2</text>
	<text transform="matrix(1 0 0 1 822.6758 27.2256)" fill="#6565AC" font-family="'BebasNeue'" font-size="16.1099">0,5</text>
	<text transform="matrix(1 0 0 1 786.6201 27.2256)" fill="#6565AC" font-family="'BebasNeue'" font-size="16.1099">0</text>
	<text transform="matrix(1 0 0 1 666.2119 27.2256)" fill="#84A45B" font-family="'BebasNeue'" font-size="16.1099">1</text>
	<text transform="matrix(1 0 0 1 991.8301 27.2256)" fill="#E94A53" font-family="'BebasNeue'" font-size="16.1099">0,5</text>
	<text transform="matrix(1 0 0 1 730.6582 27.2256)" fill="#84A45B" font-family="'BebasNeue'" font-size="16.1099">5</text>
	<text transform="matrix(1 0 0 1 867.6289 27.2256)" fill="#6565AC" font-family="'BebasNeue'" font-size="16.1099">1</text>
	
		<line opacity="0" fill="none" stroke="#84A45B" stroke-width="2" stroke-miterlimit="10" x1="774.122" y1="0" x2="774.122" y2="2.148"/>
	<line fill="none" stroke="#84A45B" stroke-width="2" stroke-miterlimit="10" x1="782.177" y1="0" x2="782.177" y2="2.148"/>
	<text transform="matrix(1 0 0 1 762.8779 27.2256)" fill="#84A45B" font-family="'BebasNeue'" font-size="16.1099">7</text>
	
		<line opacity="0.9" fill="none" stroke="#FFFFFF" stroke-width="2" stroke-miterlimit="10" x1="1193.024" y1="0.17" x2="1193.024" y2="2.318"/>
	<text transform="matrix(1 0 0 1 698.8271 27.2256)" fill="#84A45B" font-family="'BebasNeue'" font-size="16.1099">3</text>
</g>
<g id="Gauche">
	<line fill="#FFFFFF" stroke="#E94A53" stroke-width="2" stroke-miterlimit="10" x1="3.667" y1="0" x2="3.667" y2="5.71"/>
	
		<line opacity="0.9" fill="none" stroke="#FFFFFF" stroke-width="2" stroke-miterlimit="10" x1="11.721" y1="0.17" x2="11.721" y2="2.318"/>
	<line fill="#FFFFFF" stroke="#E94A53" stroke-width="2" stroke-miterlimit="10" x1="19.776" y1="0" x2="19.776" y2="5.71"/>
	
		<line opacity="0.9" fill="none" stroke="#FFFFFF" stroke-width="2" stroke-miterlimit="10" x1="27.831" y1="0.17" x2="27.831" y2="2.318"/>
	<line fill="#FFFFFF" stroke="#E94A53" stroke-width="2" stroke-miterlimit="10" x1="35.886" y1="0" x2="35.886" y2="5.71"/>
	
		<line opacity="0.9" fill="none" stroke="#FFFFFF" stroke-width="2" stroke-miterlimit="10" x1="43.941" y1="0.17" x2="43.941" y2="2.318"/>
	<line fill="#FFFFFF" stroke="#E94A53" stroke-width="2" stroke-miterlimit="10" x1="51.996" y1="0" x2="51.996" y2="5.71"/>
	
		<line opacity="0.9" fill="none" stroke="#FFFFFF" stroke-width="2" stroke-miterlimit="10" x1="60.051" y1="0.17" x2="60.051" y2="2.318"/>
	<line fill="#FFFFFF" stroke="#E94A53" stroke-width="2" stroke-miterlimit="10" x1="68.106" y1="0" x2="68.106" y2="5.71"/>
	
		<line opacity="0.9" fill="none" stroke="#FFFFFF" stroke-width="2" stroke-miterlimit="10" x1="76.161" y1="0.17" x2="76.161" y2="2.318"/>
	<line fill="#FFFFFF" stroke="#E94A53" stroke-width="2" stroke-miterlimit="10" x1="84.216" y1="0" x2="84.216" y2="5.71"/>
	
		<line opacity="0.9" fill="none" stroke="#FFFFFF" stroke-width="2" stroke-miterlimit="10" x1="92.271" y1="0.17" x2="92.271" y2="2.318"/>
	<line fill="#FFFFFF" stroke="#E94A53" stroke-width="2" stroke-miterlimit="10" x1="100.326" y1="0" x2="100.326" y2="5.71"/>
	
		<line opacity="0.9" fill="none" stroke="#FFFFFF" stroke-width="2" stroke-miterlimit="10" x1="108.38" y1="0.17" x2="108.38" y2="2.318"/>
	<line fill="#FFFFFF" stroke="#E94A53" stroke-width="2" stroke-miterlimit="10" x1="116.436" y1="0" x2="116.436" y2="5.71"/>
	
		<line opacity="0.9" fill="none" stroke="#FFFFFF" stroke-width="2" stroke-miterlimit="10" x1="124.491" y1="0.17" x2="124.491" y2="2.318"/>
	<line fill="#FFFFFF" stroke="#E94A53" stroke-width="2" stroke-miterlimit="10" x1="132.545" y1="0" x2="132.545" y2="5.71"/>
	
		<line opacity="0.9" fill="none" stroke="#FFFFFF" stroke-width="2" stroke-miterlimit="10" x1="140.601" y1="0.17" x2="140.601" y2="2.318"/>
	<line fill="#FFFFFF" stroke="#E94A53" stroke-width="2" stroke-miterlimit="10" x1="148.655" y1="0" x2="148.655" y2="5.71"/>
	
		<line opacity="0.9" fill="none" stroke="#FFFFFF" stroke-width="2" stroke-miterlimit="10" x1="156.71" y1="0.17" x2="156.71" y2="2.318"/>
	
		<line opacity="0.9" fill="none" stroke="#FFFFFF" stroke-width="2" stroke-miterlimit="10" x1="164.765" y1="0.17" x2="164.765" y2="2.318"/>
	
		<line opacity="0.9" fill="none" stroke="#FFFFFF" stroke-width="2" stroke-miterlimit="10" x1="172.82" y1="0.17" x2="172.82" y2="2.318"/>
	
		<line opacity="0.9" fill="none" stroke="#FFFFFF" stroke-width="2" stroke-miterlimit="10" x1="180.875" y1="0.17" x2="180.875" y2="2.318"/>
	<line fill="#FFFFFF" stroke="#E94A53" stroke-width="2" stroke-miterlimit="10" x1="188.93" y1="0" x2="188.93" y2="5.71"/>
	
		<line opacity="0.9" fill="none" stroke="#FFFFFF" stroke-width="2" stroke-miterlimit="10" x1="196.985" y1="0.17" x2="196.985" y2="2.318"/>
	
		<line opacity="0.9" fill="none" stroke="#FFFFFF" stroke-width="2" stroke-miterlimit="10" x1="205.04" y1="0.17" x2="205.04" y2="2.318"/>
	
		<line opacity="0.9" fill="none" stroke="#FFFFFF" stroke-width="2" stroke-miterlimit="10" x1="213.095" y1="0.17" x2="213.095" y2="2.318"/>
	
		<line opacity="0.9" fill="none" stroke="#FFFFFF" stroke-width="2" stroke-miterlimit="10" x1="221.15" y1="0.17" x2="221.15" y2="2.318"/>
	<line fill="#FFFFFF" stroke="#E94A53" stroke-width="2" stroke-miterlimit="10" x1="229.205" y1="0" x2="229.205" y2="5.71"/>
	<line fill="#FFFFFF" stroke="#6565AC" stroke-width="2" stroke-miterlimit="10" x1="237.26" y1="0.17" x2="237.26" y2="2.318"/>
	
		<line opacity="0.9" fill="none" stroke="#FFFFFF" stroke-width="2" stroke-miterlimit="10" x1="245.315" y1="0.17" x2="245.315" y2="2.318"/>
	<line fill="#FFFFFF" stroke="#6565AC" stroke-width="2" stroke-miterlimit="10" x1="253.37" y1="0" x2="253.37" y2="5.71"/>
	
		<line opacity="0.9" fill="none" stroke="#FFFFFF" stroke-width="2" stroke-miterlimit="10" x1="261.425" y1="0.17" x2="261.425" y2="2.318"/>
	<line fill="#FFFFFF" stroke="#6565AC" stroke-width="2" stroke-miterlimit="10" x1="269.479" y1="0" x2="269.479" y2="5.71"/>
	
		<line opacity="0.9" fill="none" stroke="#FFFFFF" stroke-width="2" stroke-miterlimit="10" x1="277.535" y1="0.17" x2="277.535" y2="2.318"/>
	<line fill="#FFFFFF" stroke="#6565AC" stroke-width="2" stroke-miterlimit="10" x1="285.589" y1="0" x2="285.589" y2="5.71"/>
	
		<line opacity="0.9" fill="none" stroke="#FFFFFF" stroke-width="2" stroke-miterlimit="10" x1="293.645" y1="0.17" x2="293.645" y2="2.318"/>
	<line fill="#FFFFFF" stroke="#6565AC" stroke-width="2" stroke-miterlimit="10" x1="301.699" y1="0" x2="301.699" y2="5.71"/>
	
		<line opacity="0.9" fill="none" stroke="#FFFFFF" stroke-width="2" stroke-miterlimit="10" x1="309.754" y1="0.17" x2="309.754" y2="2.318"/>
	<line fill="#FFFFFF" stroke="#6565AC" stroke-width="2" stroke-miterlimit="10" x1="317.809" y1="0" x2="317.809" y2="5.71"/>
	
		<line opacity="0.9" fill="none" stroke="#FFFFFF" stroke-width="2" stroke-miterlimit="10" x1="325.864" y1="0.17" x2="325.864" y2="2.318"/>
	
		<line opacity="0.9" fill="none" stroke="#FFFFFF" stroke-width="2" stroke-miterlimit="10" x1="333.919" y1="0.17" x2="333.919" y2="2.318"/>
	
		<line opacity="0.9" fill="none" stroke="#FFFFFF" stroke-width="2" stroke-miterlimit="10" x1="341.974" y1="0.17" x2="341.974" y2="2.318"/>
	
		<line opacity="0.9" fill="none" stroke="#FFFFFF" stroke-width="2" stroke-miterlimit="10" x1="350.029" y1="0.17" x2="350.029" y2="2.318"/>
	<line fill="#FFFFFF" stroke="#6565AC" stroke-width="2" stroke-miterlimit="10" x1="358.084" y1="0" x2="358.084" y2="5.71"/>
	
		<line opacity="0.9" fill="none" stroke="#FFFFFF" stroke-width="2" stroke-miterlimit="10" x1="366.139" y1="0.17" x2="366.139" y2="2.318"/>
	
		<line opacity="0.9" fill="none" stroke="#FFFFFF" stroke-width="2" stroke-miterlimit="10" x1="374.194" y1="0.17" x2="374.194" y2="2.318"/>
	
		<line opacity="0.9" fill="none" stroke="#FFFFFF" stroke-width="2" stroke-miterlimit="10" x1="382.249" y1="0.17" x2="382.249" y2="2.318"/>
	
		<line opacity="0.9" fill="none" stroke="#FFFFFF" stroke-width="2" stroke-miterlimit="10" x1="390.304" y1="0.17" x2="390.304" y2="2.318"/>
	<line fill="#FFFFFF" stroke="#6565AC" stroke-width="2" stroke-miterlimit="10" x1="398.359" y1="0" x2="398.359" y2="5.71"/>
	<line fill="none" stroke="#84A45B" stroke-width="2" stroke-miterlimit="10" x1="422.568" y1="0" x2="422.568" y2="2.148"/>
	
		<line opacity="0" fill="none" stroke="#84A45B" stroke-width="2" stroke-miterlimit="10" x1="430.623" y1="0" x2="430.623" y2="2.148"/>
	<line fill="none" stroke="#84A45B" stroke-width="2" stroke-miterlimit="10" x1="438.678" y1="0" x2="438.678" y2="2.148"/>
	
		<line opacity="0" fill="none" stroke="#84A45B" stroke-width="2" stroke-miterlimit="10" x1="446.733" y1="0" x2="446.733" y2="2.148"/>
	<line fill="none" stroke="#84A45B" stroke-width="2" stroke-miterlimit="10" x1="454.788" y1="0" x2="454.788" y2="2.148"/>
	
		<line opacity="0" fill="none" stroke="#84A45B" stroke-width="2" stroke-miterlimit="10" x1="462.843" y1="0" x2="462.843" y2="2.148"/>
	<line fill="none" stroke="#84A45B" stroke-width="2" stroke-miterlimit="10" x1="470.898" y1="0" x2="470.898" y2="2.148"/>
	
		<line opacity="0" fill="none" stroke="#84A45B" stroke-width="2" stroke-miterlimit="10" x1="478.953" y1="0" x2="478.953" y2="2.148"/>
	<line fill="none" stroke="#84A45B" stroke-width="2" stroke-miterlimit="10" x1="487.008" y1="0" x2="487.008" y2="2.148"/>
	
		<line opacity="0" fill="none" stroke="#84A45B" stroke-width="2" stroke-miterlimit="10" x1="495.063" y1="0" x2="495.063" y2="2.148"/>
	<line fill="none" stroke="#84A45B" stroke-width="2" stroke-miterlimit="10" x1="503.118" y1="0" x2="503.118" y2="2.148"/>
	
		<line opacity="0" fill="none" stroke="#84A45B" stroke-width="2" stroke-miterlimit="10" x1="511.173" y1="0" x2="511.173" y2="2.148"/>
	<line fill="none" stroke="#84A45B" stroke-width="2" stroke-miterlimit="10" x1="519.228" y1="0" x2="519.228" y2="5.71"/>
	<text transform="matrix(1 0 0 1 16.1357 27.2256)" fill="#E94A53" font-family="'BebasNeue'" font-size="16.1099">5</text>
	<text transform="matrix(1 0 0 1 48.8057 27.2256)" fill="#E94A53" font-family="'BebasNeue'" font-size="16.1099">4</text>
	<text transform="matrix(1 0 0 1 80.7212 27.2256)" fill="#E94A53" font-family="'BebasNeue'" font-size="16.1099">3</text>
	<text transform="matrix(1 0 0 1 113.02 27.2256)" fill="#E94A53" font-family="'BebasNeue'" font-size="16.1099">2</text>
	<text transform="matrix(1 0 0 1 145.313 27.2256)" fill="#E94A53" font-family="'BebasNeue'" font-size="16.1099">1</text>
	<text transform="matrix(1 0 0 1 249.5908 27.2256)" fill="#6565AC" font-family="'BebasNeue'" font-size="16.1099">3</text>
	<text transform="matrix(1 0 0 1 282.3999 27.2256)" fill="#6565AC" font-family="'BebasNeue'" font-size="16.1099">2</text>
	<text transform="matrix(1 0 0 1 350.2065 27.2256)" fill="#6565AC" font-family="'BebasNeue'" font-size="16.1099">0,5</text>
	<text transform="matrix(1 0 0 1 181.0527 27.2256)" fill="#E94A53" font-family="'BebasNeue'" font-size="16.1099">0,5</text>
	<text transform="matrix(1 0 0 1 451.2236 27.2256)" fill="#84A45B" font-family="'BebasNeue'" font-size="16.1099">5</text>
	<text transform="matrix(1 0 0 1 314.626 27.2256)" fill="#6565AC" font-family="'BebasNeue'" font-size="16.1099">1</text>
	
		<line opacity="0" fill="none" stroke="#84A45B" stroke-width="2" stroke-miterlimit="10" x1="414.513" y1="0" x2="414.513" y2="2.148"/>
	<line fill="none" stroke="#84A45B" stroke-width="2" stroke-miterlimit="10" x1="406.458" y1="0" x2="406.458" y2="2.148"/>
	<text transform="matrix(1 0 0 1 419.3784 27.2256)" fill="#84A45B" font-family="'BebasNeue'" font-size="16.1099">7</text>
	
		<line opacity="0.9" fill="none" stroke="#FFFFFF" stroke-width="2" stroke-miterlimit="10" x1="-4.389" y1="0.17" x2="-4.389" y2="2.318"/>
	<text transform="matrix(1 0 0 1 483.4595 27.2256)" fill="#84A45B" font-family="'BebasNeue'" font-size="16.1099">3</text>
</g>
</svg>
