<?xml version="1.0" encoding="utf-8"?>
<!-- Generator: Adobe Illustrator 17.1.0, SVG Export Plug-In . SVG Version: 6.00 Build 0)  -->
<!DOCTYPE svg PUBLIC "-//W3C//DTD SVG 1.1//EN" "http://www.w3.org/Graphics/SVG/1.1/DTD/svg11.dtd">
<svg version="1.1" id="Calque_1" xmlns="http://www.w3.org/2000/svg" xmlns:xlink="http://www.w3.org/1999/xlink" x="0px" y="0px"
	 viewBox="0 0 960 560" enable-background="new 0 0 960 560" xml:space="preserve">
<g id="Calque_2" display="none">
	<rect y="254.5" display="inline" opacity="0.8" enable-background="new    " width="960" height="512"/>
</g>
<g id="Calque_1_1_">
	<g>
		<line fill="none" stroke="#E94A53" stroke-width="2" stroke-miterlimit="10" x1="113.9" y1="256.5" x2="113.9" y2="260"/>
		
			<line opacity="0.9" fill="none" stroke="#FFFFFF" stroke-width="2" stroke-miterlimit="10" enable-background="new    " x1="118.9" y1="256.6" x2="118.9" y2="257.9"/>
		<line fill="none" stroke="#E94A53" stroke-width="2" stroke-miterlimit="10" x1="123.9" y1="256.5" x2="123.9" y2="260"/>
		
			<line opacity="0.9" fill="none" stroke="#FFFFFF" stroke-width="2" stroke-miterlimit="10" enable-background="new    " x1="128.9" y1="256.6" x2="128.9" y2="257.9"/>
		<line fill="none" stroke="#E94A53" stroke-width="2" stroke-miterlimit="10" x1="133.9" y1="256.5" x2="133.9" y2="260"/>
		
			<line opacity="0.9" fill="none" stroke="#FFFFFF" stroke-width="2" stroke-miterlimit="10" enable-background="new    " x1="138.9" y1="256.6" x2="138.9" y2="257.9"/>
		<line fill="none" stroke="#E94A53" stroke-width="2" stroke-miterlimit="10" x1="143.9" y1="256.5" x2="143.9" y2="260"/>
		
			<line opacity="0.9" fill="none" stroke="#FFFFFF" stroke-width="2" stroke-miterlimit="10" enable-background="new    " x1="148.9" y1="256.6" x2="148.9" y2="257.9"/>
		<line fill="none" stroke="#E94A53" stroke-width="2" stroke-miterlimit="10" x1="153.9" y1="256.5" x2="153.9" y2="260"/>
		
			<line opacity="0.9" fill="none" stroke="#FFFFFF" stroke-width="2" stroke-miterlimit="10" enable-background="new    " x1="158.9" y1="256.6" x2="158.9" y2="257.9"/>
		<line fill="none" stroke="#E94A53" stroke-width="2" stroke-miterlimit="10" x1="163.9" y1="256.5" x2="163.9" y2="260"/>
		
			<line opacity="0.9" fill="none" stroke="#FFFFFF" stroke-width="2" stroke-miterlimit="10" enable-background="new    " x1="168.9" y1="256.6" x2="168.9" y2="257.9"/>
		<line fill="none" stroke="#E94A53" stroke-width="2" stroke-miterlimit="10" x1="173.9" y1="256.5" x2="173.9" y2="260"/>
		
			<line opacity="0.9" fill="none" stroke="#FFFFFF" stroke-width="2" stroke-miterlimit="10" enable-background="new    " x1="178.9" y1="256.6" x2="178.9" y2="257.9"/>
		<line fill="none" stroke="#E94A53" stroke-width="2" stroke-miterlimit="10" x1="183.9" y1="256.5" x2="183.9" y2="260"/>
		
			<line opacity="0.9" fill="none" stroke="#FFFFFF" stroke-width="2" stroke-miterlimit="10" enable-background="new    " x1="188.9" y1="256.6" x2="188.9" y2="257.9"/>
		<line fill="none" stroke="#E94A53" stroke-width="2" stroke-miterlimit="10" x1="193.9" y1="256.5" x2="193.9" y2="260"/>
		
			<line opacity="0.9" fill="none" stroke="#FFFFFF" stroke-width="2" stroke-miterlimit="10" enable-background="new    " x1="198.9" y1="256.6" x2="198.9" y2="257.9"/>
		<line fill="none" stroke="#E94A53" stroke-width="2" stroke-miterlimit="10" x1="203.9" y1="256.5" x2="203.9" y2="260"/>
		
			<line opacity="0.9" fill="none" stroke="#FFFFFF" stroke-width="2" stroke-miterlimit="10" enable-background="new    " x1="208.9" y1="256.6" x2="208.9" y2="257.9"/>
		
			<line opacity="0.9" fill="none" stroke="#FFFFFF" stroke-width="2" stroke-miterlimit="10" enable-background="new    " x1="213.9" y1="256.6" x2="213.9" y2="257.9"/>
		
			<line opacity="0.9" fill="none" stroke="#FFFFFF" stroke-width="2" stroke-miterlimit="10" enable-background="new    " x1="218.9" y1="256.6" x2="218.9" y2="257.9"/>
		
			<line opacity="0.9" fill="none" stroke="#FFFFFF" stroke-width="2" stroke-miterlimit="10" enable-background="new    " x1="223.9" y1="256.6" x2="223.9" y2="257.9"/>
		<line fill="none" stroke="#E94A53" stroke-width="2" stroke-miterlimit="10" x1="228.9" y1="256.5" x2="228.9" y2="260"/>
		
			<line opacity="0.9" fill="none" stroke="#FFFFFF" stroke-width="2" stroke-miterlimit="10" enable-background="new    " x1="233.9" y1="256.6" x2="233.9" y2="257.9"/>
		
			<line opacity="0.9" fill="none" stroke="#FFFFFF" stroke-width="2" stroke-miterlimit="10" enable-background="new    " x1="238.9" y1="256.6" x2="238.9" y2="257.9"/>
		
			<line opacity="0.9" fill="none" stroke="#FFFFFF" stroke-width="2" stroke-miterlimit="10" enable-background="new    " x1="243.9" y1="256.6" x2="243.9" y2="257.9"/>
		
			<line opacity="0.9" fill="none" stroke="#FFFFFF" stroke-width="2" stroke-miterlimit="10" enable-background="new    " x1="248.9" y1="256.6" x2="248.9" y2="257.9"/>
		<line fill="none" stroke="#E94A53" stroke-width="2" stroke-miterlimit="10" x1="253.9" y1="256.5" x2="253.9" y2="260"/>
		<line fill="none" stroke="#6565AC" stroke-width="2" stroke-miterlimit="10" x1="258.9" y1="256.6" x2="258.9" y2="257.9"/>
		
			<line opacity="0.9" fill="none" stroke="#FFFFFF" stroke-width="2" stroke-miterlimit="10" enable-background="new    " x1="263.9" y1="256.6" x2="263.9" y2="257.9"/>
		<line fill="none" stroke="#6565AC" stroke-width="2" stroke-miterlimit="10" x1="268.9" y1="256.5" x2="268.9" y2="260"/>
		
			<line opacity="0.9" fill="none" stroke="#FFFFFF" stroke-width="2" stroke-miterlimit="10" enable-background="new    " x1="273.9" y1="256.6" x2="273.9" y2="257.9"/>
		<line fill="none" stroke="#6565AC" stroke-width="2" stroke-miterlimit="10" x1="278.9" y1="256.5" x2="278.9" y2="260"/>
		
			<line opacity="0.9" fill="none" stroke="#FFFFFF" stroke-width="2" stroke-miterlimit="10" enable-background="new    " x1="283.9" y1="256.6" x2="283.9" y2="257.9"/>
		<line fill="none" stroke="#6565AC" stroke-width="2" stroke-miterlimit="10" x1="288.9" y1="256.5" x2="288.9" y2="260"/>
		
			<line opacity="0.9" fill="none" stroke="#FFFFFF" stroke-width="2" stroke-miterlimit="10" enable-background="new    " x1="293.9" y1="256.6" x2="293.9" y2="257.9"/>
		<line fill="none" stroke="#6565AC" stroke-width="2" stroke-miterlimit="10" x1="298.9" y1="256.5" x2="298.9" y2="260"/>
		
			<line opacity="0.9" fill="none" stroke="#FFFFFF" stroke-width="2" stroke-miterlimit="10" enable-background="new    " x1="303.9" y1="256.6" x2="303.9" y2="257.9"/>
		<line fill="none" stroke="#6565AC" stroke-width="2" stroke-miterlimit="10" x1="308.9" y1="256.5" x2="308.9" y2="260"/>
		
			<line opacity="0.9" fill="none" stroke="#FFFFFF" stroke-width="2" stroke-miterlimit="10" enable-background="new    " x1="313.9" y1="256.6" x2="313.9" y2="257.9"/>
		
			<line opacity="0.9" fill="none" stroke="#FFFFFF" stroke-width="2" stroke-miterlimit="10" enable-background="new    " x1="318.9" y1="256.6" x2="318.9" y2="257.9"/>
		
			<line opacity="0.9" fill="none" stroke="#FFFFFF" stroke-width="2" stroke-miterlimit="10" enable-background="new    " x1="323.9" y1="256.6" x2="323.9" y2="257.9"/>
		
			<line opacity="0.9" fill="none" stroke="#FFFFFF" stroke-width="2" stroke-miterlimit="10" enable-background="new    " x1="328.9" y1="256.6" x2="328.9" y2="257.9"/>
		<line fill="none" stroke="#6565AC" stroke-width="2" stroke-miterlimit="10" x1="333.9" y1="256.5" x2="333.9" y2="260"/>
		
			<line opacity="0.9" fill="none" stroke="#FFFFFF" stroke-width="2" stroke-miterlimit="10" enable-background="new    " x1="338.9" y1="256.6" x2="338.9" y2="257.9"/>
		
			<line opacity="0.9" fill="none" stroke="#FFFFFF" stroke-width="2" stroke-miterlimit="10" enable-background="new    " x1="343.9" y1="256.6" x2="343.9" y2="257.9"/>
		
			<line opacity="0.9" fill="none" stroke="#FFFFFF" stroke-width="2" stroke-miterlimit="10" enable-background="new    " x1="348.9" y1="256.6" x2="348.9" y2="257.9"/>
		
			<line opacity="0.9" fill="none" stroke="#FFFFFF" stroke-width="2" stroke-miterlimit="10" enable-background="new    " x1="353.9" y1="256.6" x2="353.9" y2="257.9"/>
		<line fill="none" stroke="#6565AC" stroke-width="2" stroke-miterlimit="10" x1="358.9" y1="256.5" x2="358.9" y2="260"/>
		<line fill="none" stroke="#84A45B" stroke-width="2" stroke-miterlimit="10" x1="373.9" y1="256.5" x2="373.9" y2="257.8"/>
		
			<line fill="none" stroke="#84A45B" stroke-width="2" stroke-miterlimit="10" stroke-opacity="0" x1="378.9" y1="256.5" x2="378.9" y2="257.8"/>
		<line fill="none" stroke="#84A45B" stroke-width="2" stroke-miterlimit="10" x1="383.9" y1="256.5" x2="383.9" y2="257.8"/>
		
			<line fill="none" stroke="#84A45B" stroke-width="2" stroke-miterlimit="10" stroke-opacity="0" x1="388.9" y1="256.5" x2="388.9" y2="257.8"/>
		<line fill="none" stroke="#84A45B" stroke-width="2" stroke-miterlimit="10" x1="393.9" y1="256.5" x2="393.9" y2="257.8"/>
		
			<line fill="none" stroke="#84A45B" stroke-width="2" stroke-miterlimit="10" stroke-opacity="0" x1="398.9" y1="256.5" x2="398.9" y2="257.8"/>
		<line fill="none" stroke="#84A45B" stroke-width="2" stroke-miterlimit="10" x1="403.9" y1="256.5" x2="403.9" y2="257.8"/>
		
			<line fill="none" stroke="#84A45B" stroke-width="2" stroke-miterlimit="10" stroke-opacity="0" x1="408.9" y1="256.5" x2="408.9" y2="257.8"/>
		<line fill="none" stroke="#84A45B" stroke-width="2" stroke-miterlimit="10" x1="413.9" y1="256.5" x2="413.9" y2="257.8"/>
		
			<line fill="none" stroke="#84A45B" stroke-width="2" stroke-miterlimit="10" stroke-opacity="0" x1="418.9" y1="256.5" x2="418.9" y2="257.8"/>
		<line fill="none" stroke="#84A45B" stroke-width="2" stroke-miterlimit="10" x1="423.9" y1="256.5" x2="423.9" y2="257.8"/>
		
			<line fill="none" stroke="#84A45B" stroke-width="2" stroke-miterlimit="10" stroke-opacity="0" x1="428.9" y1="256.5" x2="428.9" y2="257.8"/>
		<line fill="none" stroke="#84A45B" stroke-width="2" stroke-miterlimit="10" x1="433.9" y1="256.5" x2="433.9" y2="260"/>
		<text transform="matrix(1 0 0 1 121.5801 273.3672)" fill="#E94A53" font-family="'BebasNeue'" font-size="10">5</text>
		<text transform="matrix(1 0 0 1 141.8599 273.3672)" fill="#E94A53" font-family="'BebasNeue'" font-size="10">4</text>
		<text transform="matrix(1 0 0 1 161.671 273.3672)" fill="#E94A53" font-family="'BebasNeue'" font-size="10">3</text>
		<text transform="matrix(1 0 0 1 181.7197 273.3672)" fill="#E94A53" font-family="'BebasNeue'" font-size="10">2</text>
		<text transform="matrix(1 0 0 1 201.7653 273.3672)" fill="#E94A53" font-family="'BebasNeue'" font-size="10">1</text>
		<text transform="matrix(1 0 0 1 266.4941 273.3672)" fill="#6565AC" font-family="'BebasNeue'" font-size="10">3</text>
		<text transform="matrix(1 0 0 1 286.86 273.3672)" fill="#6565AC" font-family="'BebasNeue'" font-size="10">2</text>
		<text transform="matrix(1 0 0 1 328.9499 273.3672)" fill="#6565AC" font-family="'BebasNeue'" font-size="10">0,5</text>
		<text transform="matrix(1 0 0 1 223.9499 273.3672)" fill="#E94A53" font-family="'BebasNeue'" font-size="10">0,5</text>
		<text transform="matrix(1 0 0 1 391.6553 273.3672)" fill="#84A45B" font-family="'BebasNeue'" font-size="10">5</text>
		<text transform="matrix(1 0 0 1 306.8639 273.3672)" fill="#6565AC" font-family="'BebasNeue'" font-size="10">1</text>
		
			<line fill="none" stroke="#84A45B" stroke-width="2" stroke-miterlimit="10" stroke-opacity="0" x1="368.9" y1="256.5" x2="368.9" y2="257.8"/>
		<line fill="none" stroke="#84A45B" stroke-width="2" stroke-miterlimit="10" x1="363.9" y1="256.5" x2="363.9" y2="257.8"/>
		<text transform="matrix(1 0 0 1 371.8878 273.3672)" fill="#84A45B" font-family="'BebasNeue'" font-size="10">7</text>
		
			<line opacity="0.9" fill="none" stroke="#FFFFFF" stroke-width="2" stroke-miterlimit="10" enable-background="new    " x1="108.9" y1="256.6" x2="108.9" y2="257.9"/>
		<text transform="matrix(1 0 0 1 411.6651 273.3672)" fill="#84A45B" font-family="'BebasNeue'" font-size="10">3</text>
		
			<line opacity="0.9" fill="none" stroke="#FFFFFF" stroke-width="2" stroke-miterlimit="10" enable-background="new    " x1="49.3" y1="256.6" x2="49.3" y2="257.9"/>
		<line fill="none" stroke="#E94A53" stroke-width="2" stroke-miterlimit="10" x1="54.3" y1="256.5" x2="54.3" y2="260"/>
		
			<line opacity="0.9" fill="none" stroke="#FFFFFF" stroke-width="2" stroke-miterlimit="10" enable-background="new    " x1="59.3" y1="256.6" x2="59.3" y2="257.9"/>
		<line fill="none" stroke="#E94A53" stroke-width="2" stroke-miterlimit="10" x1="64.3" y1="256.5" x2="64.3" y2="260"/>
		
			<line opacity="0.9" fill="none" stroke="#FFFFFF" stroke-width="2" stroke-miterlimit="10" enable-background="new    " x1="69.3" y1="256.6" x2="69.3" y2="257.9"/>
		<line fill="none" stroke="#E94A53" stroke-width="2" stroke-miterlimit="10" x1="74.3" y1="256.5" x2="74.3" y2="260"/>
		
			<line opacity="0.9" fill="none" stroke="#FFFFFF" stroke-width="2" stroke-miterlimit="10" enable-background="new    " x1="79.3" y1="256.6" x2="79.3" y2="257.9"/>
		<line fill="none" stroke="#E94A53" stroke-width="2" stroke-miterlimit="10" x1="84.3" y1="256.5" x2="84.3" y2="260"/>
		
			<line opacity="0.9" fill="none" stroke="#FFFFFF" stroke-width="2" stroke-miterlimit="10" enable-background="new    " x1="89.3" y1="256.6" x2="89.3" y2="257.9"/>
		<line fill="none" stroke="#E94A53" stroke-width="2" stroke-miterlimit="10" x1="94.3" y1="256.5" x2="94.3" y2="260"/>
		
			<line opacity="0.9" fill="none" stroke="#FFFFFF" stroke-width="2" stroke-miterlimit="10" enable-background="new    " x1="99.3" y1="256.6" x2="99.3" y2="257.9"/>
		<line fill="none" stroke="#E94A53" stroke-width="2" stroke-miterlimit="10" x1="104.3" y1="256.5" x2="104.3" y2="260"/>
		<text transform="matrix(1 0 0 1 62.1153 273.3672)" fill="#E94A53" font-family="'BebasNeue'" font-size="10">8</text>
		<text transform="matrix(1 0 0 1 82.1641 273.3672)" fill="#E94A53" font-family="'BebasNeue'" font-size="10">7</text>
		<text transform="matrix(1 0 0 1 102.21 273.3672)" fill="#E94A53" font-family="'BebasNeue'" font-size="10">6</text>
		<line fill="none" stroke="#E94A53" stroke-width="2" stroke-miterlimit="10" x1="847.1" y1="256.5" x2="847.1" y2="260"/>
		
			<line opacity="0.9" fill="none" stroke="#FFFFFF" stroke-width="2" stroke-miterlimit="10" enable-background="new    " x1="842.1" y1="256.6" x2="842.1" y2="257.9"/>
		<line fill="none" stroke="#E94A53" stroke-width="2" stroke-miterlimit="10" x1="837.1" y1="256.5" x2="837.1" y2="260"/>
		
			<line opacity="0.9" fill="none" stroke="#FFFFFF" stroke-width="2" stroke-miterlimit="10" enable-background="new    " x1="832.1" y1="256.6" x2="832.1" y2="257.9"/>
		<line fill="none" stroke="#E94A53" stroke-width="2" stroke-miterlimit="10" x1="827.1" y1="256.5" x2="827.1" y2="260"/>
		
			<line opacity="0.9" fill="none" stroke="#FFFFFF" stroke-width="2" stroke-miterlimit="10" enable-background="new    " x1="822.1" y1="256.6" x2="822.1" y2="257.9"/>
		<line fill="none" stroke="#E94A53" stroke-width="2" stroke-miterlimit="10" x1="817.1" y1="256.5" x2="817.1" y2="260"/>
		
			<line opacity="0.9" fill="none" stroke="#FFFFFF" stroke-width="2" stroke-miterlimit="10" enable-background="new    " x1="812.1" y1="256.6" x2="812.1" y2="257.9"/>
		<line fill="none" stroke="#E94A53" stroke-width="2" stroke-miterlimit="10" x1="807.1" y1="256.5" x2="807.1" y2="260"/>
		
			<line opacity="0.9" fill="none" stroke="#FFFFFF" stroke-width="2" stroke-miterlimit="10" enable-background="new    " x1="802.1" y1="256.6" x2="802.1" y2="257.9"/>
		<line fill="none" stroke="#E94A53" stroke-width="2" stroke-miterlimit="10" x1="797.1" y1="256.5" x2="797.1" y2="260"/>
		
			<line opacity="0.9" fill="none" stroke="#FFFFFF" stroke-width="2" stroke-miterlimit="10" enable-background="new    " x1="792.1" y1="256.6" x2="792.1" y2="257.9"/>
		<line fill="none" stroke="#E94A53" stroke-width="2" stroke-miterlimit="10" x1="787.1" y1="256.5" x2="787.1" y2="260"/>
		
			<line opacity="0.9" fill="none" stroke="#FFFFFF" stroke-width="2" stroke-miterlimit="10" enable-background="new    " x1="782.1" y1="256.6" x2="782.1" y2="257.9"/>
		<line fill="none" stroke="#E94A53" stroke-width="2" stroke-miterlimit="10" x1="777.1" y1="256.5" x2="777.1" y2="260"/>
		
			<line opacity="0.9" fill="none" stroke="#FFFFFF" stroke-width="2" stroke-miterlimit="10" enable-background="new    " x1="772.1" y1="256.6" x2="772.1" y2="257.9"/>
		<line fill="none" stroke="#E94A53" stroke-width="2" stroke-miterlimit="10" x1="767.1" y1="256.5" x2="767.1" y2="260"/>
		
			<line opacity="0.9" fill="none" stroke="#FFFFFF" stroke-width="2" stroke-miterlimit="10" enable-background="new    " x1="762.1" y1="256.6" x2="762.1" y2="257.9"/>
		<line fill="none" stroke="#E94A53" stroke-width="2" stroke-miterlimit="10" x1="757.1" y1="256.5" x2="757.1" y2="260"/>
		
			<line opacity="0.9" fill="none" stroke="#FFFFFF" stroke-width="2" stroke-miterlimit="10" enable-background="new    " x1="752.1" y1="256.6" x2="752.1" y2="257.9"/>
		
			<line opacity="0.9" fill="none" stroke="#FFFFFF" stroke-width="2" stroke-miterlimit="10" enable-background="new    " x1="747.1" y1="256.6" x2="747.1" y2="257.9"/>
		
			<line opacity="0.9" fill="none" stroke="#FFFFFF" stroke-width="2" stroke-miterlimit="10" enable-background="new    " x1="742.1" y1="256.6" x2="742.1" y2="257.9"/>
		
			<line opacity="0.9" fill="none" stroke="#FFFFFF" stroke-width="2" stroke-miterlimit="10" enable-background="new    " x1="737.1" y1="256.6" x2="737.1" y2="257.9"/>
		<line fill="none" stroke="#E94A53" stroke-width="2" stroke-miterlimit="10" x1="732.1" y1="256.5" x2="732.1" y2="260"/>
		
			<line opacity="0.9" fill="none" stroke="#FFFFFF" stroke-width="2" stroke-miterlimit="10" enable-background="new    " x1="727.1" y1="256.6" x2="727.1" y2="257.9"/>
		
			<line opacity="0.9" fill="none" stroke="#FFFFFF" stroke-width="2" stroke-miterlimit="10" enable-background="new    " x1="722.1" y1="256.6" x2="722.1" y2="257.9"/>
		
			<line opacity="0.9" fill="none" stroke="#FFFFFF" stroke-width="2" stroke-miterlimit="10" enable-background="new    " x1="717.1" y1="256.6" x2="717.1" y2="257.9"/>
		
			<line opacity="0.9" fill="none" stroke="#FFFFFF" stroke-width="2" stroke-miterlimit="10" enable-background="new    " x1="712.1" y1="256.6" x2="712.1" y2="257.9"/>
		<line fill="none" stroke="#E94A53" stroke-width="2" stroke-miterlimit="10" x1="707.1" y1="256.5" x2="707.1" y2="260"/>
		<line fill="none" stroke="#6565AC" stroke-width="2" stroke-miterlimit="10" x1="702.1" y1="256.6" x2="702.1" y2="257.9"/>
		
			<line opacity="0.9" fill="none" stroke="#FFFFFF" stroke-width="2" stroke-miterlimit="10" enable-background="new    " x1="697.1" y1="256.6" x2="697.1" y2="257.9"/>
		<line fill="none" stroke="#6565AC" stroke-width="2" stroke-miterlimit="10" x1="692.1" y1="256.5" x2="692.1" y2="260"/>
		
			<line opacity="0.9" fill="none" stroke="#FFFFFF" stroke-width="2" stroke-miterlimit="10" enable-background="new    " x1="687.1" y1="256.6" x2="687.1" y2="257.9"/>
		<line fill="none" stroke="#6565AC" stroke-width="2" stroke-miterlimit="10" x1="682.1" y1="256.5" x2="682.1" y2="260"/>
		
			<line opacity="0.9" fill="none" stroke="#FFFFFF" stroke-width="2" stroke-miterlimit="10" enable-background="new    " x1="677.1" y1="256.6" x2="677.1" y2="257.9"/>
		<line fill="none" stroke="#6565AC" stroke-width="2" stroke-miterlimit="10" x1="672.1" y1="256.5" x2="672.1" y2="260"/>
		
			<line opacity="0.9" fill="none" stroke="#FFFFFF" stroke-width="2" stroke-miterlimit="10" enable-background="new    " x1="667.1" y1="256.6" x2="667.1" y2="257.9"/>
		<line fill="none" stroke="#6565AC" stroke-width="2" stroke-miterlimit="10" x1="662.1" y1="256.5" x2="662.1" y2="260"/>
		
			<line opacity="0.9" fill="none" stroke="#FFFFFF" stroke-width="2" stroke-miterlimit="10" enable-background="new    " x1="657.1" y1="256.6" x2="657.1" y2="257.9"/>
		<line fill="none" stroke="#6565AC" stroke-width="2" stroke-miterlimit="10" x1="652.1" y1="256.5" x2="652.1" y2="260"/>
		
			<line opacity="0.9" fill="none" stroke="#FFFFFF" stroke-width="2" stroke-miterlimit="10" enable-background="new    " x1="647.1" y1="256.6" x2="647.1" y2="257.9"/>
		
			<line opacity="0.9" fill="none" stroke="#FFFFFF" stroke-width="2" stroke-miterlimit="10" enable-background="new    " x1="642.1" y1="256.6" x2="642.1" y2="257.9"/>
		
			<line opacity="0.9" fill="none" stroke="#FFFFFF" stroke-width="2" stroke-miterlimit="10" enable-background="new    " x1="637.1" y1="256.6" x2="637.1" y2="257.9"/>
		
			<line opacity="0.9" fill="none" stroke="#FFFFFF" stroke-width="2" stroke-miterlimit="10" enable-background="new    " x1="632.1" y1="256.6" x2="632.1" y2="257.9"/>
		<line fill="none" stroke="#6565AC" stroke-width="2" stroke-miterlimit="10" x1="627.1" y1="256.5" x2="627.1" y2="260"/>
		
			<line opacity="0.9" fill="none" stroke="#FFFFFF" stroke-width="2" stroke-miterlimit="10" enable-background="new    " x1="622.1" y1="256.6" x2="622.1" y2="257.9"/>
		
			<line opacity="0.9" fill="none" stroke="#FFFFFF" stroke-width="2" stroke-miterlimit="10" enable-background="new    " x1="617.1" y1="256.6" x2="617.1" y2="257.9"/>
		
			<line opacity="0.9" fill="none" stroke="#FFFFFF" stroke-width="2" stroke-miterlimit="10" enable-background="new    " x1="612.1" y1="256.6" x2="612.1" y2="257.9"/>
		
			<line opacity="0.9" fill="none" stroke="#FFFFFF" stroke-width="2" stroke-miterlimit="10" enable-background="new    " x1="607.1" y1="256.6" x2="607.1" y2="257.9"/>
		<line fill="none" stroke="#6565AC" stroke-width="2" stroke-miterlimit="10" x1="602.1" y1="256.5" x2="602.1" y2="260"/>
		<line fill="none" stroke="#84A45B" stroke-width="2" stroke-miterlimit="10" x1="587.1" y1="256.5" x2="587.1" y2="257.8"/>
		
			<line fill="none" stroke="#84A45B" stroke-width="2" stroke-miterlimit="10" stroke-opacity="0" x1="582.1" y1="256.5" x2="582.1" y2="257.8"/>
		<line fill="none" stroke="#84A45B" stroke-width="2" stroke-miterlimit="10" x1="577.1" y1="256.5" x2="577.1" y2="257.8"/>
		
			<line fill="none" stroke="#84A45B" stroke-width="2" stroke-miterlimit="10" stroke-opacity="0" x1="572.1" y1="256.5" x2="572.1" y2="257.8"/>
		<line fill="none" stroke="#84A45B" stroke-width="2" stroke-miterlimit="10" x1="567.1" y1="256.5" x2="567.1" y2="257.8"/>
		
			<line fill="none" stroke="#84A45B" stroke-width="2" stroke-miterlimit="10" stroke-opacity="0" x1="562.1" y1="256.5" x2="562.1" y2="257.8"/>
		<line fill="none" stroke="#84A45B" stroke-width="2" stroke-miterlimit="10" x1="557.1" y1="256.5" x2="557.1" y2="257.8"/>
		
			<line fill="none" stroke="#84A45B" stroke-width="2" stroke-miterlimit="10" stroke-opacity="0" x1="552.1" y1="256.5" x2="552.1" y2="257.8"/>
		<line fill="none" stroke="#84A45B" stroke-width="2" stroke-miterlimit="10" x1="547.1" y1="256.5" x2="547.1" y2="257.8"/>
		
			<line fill="none" stroke="#84A45B" stroke-width="2" stroke-miterlimit="10" stroke-opacity="0" x1="542.1" y1="256.5" x2="542.1" y2="257.8"/>
		<line fill="none" stroke="#84A45B" stroke-width="2" stroke-miterlimit="10" x1="537.1" y1="256.5" x2="537.1" y2="257.8"/>
		
			<line fill="none" stroke="#84A45B" stroke-width="2" stroke-miterlimit="10" stroke-opacity="0" x1="532.1" y1="256.5" x2="532.1" y2="257.8"/>
		<line fill="none" stroke="#84A45B" stroke-width="2" stroke-miterlimit="10" x1="527.1" y1="256.5" x2="527.1" y2="260"/>
		<text transform="matrix(1 0 0 1 835.417 273.3672)" fill="#E94A53" font-family="'BebasNeue'" font-size="10">5</text>
		<text transform="matrix(1 0 0 1 815.1387 273.3672)" fill="#E94A53" font-family="'BebasNeue'" font-size="10">4</text>
		<text transform="matrix(1 0 0 1 795.3271 273.3672)" fill="#E94A53" font-family="'BebasNeue'" font-size="10">3</text>
		<text transform="matrix(1 0 0 1 775.2775 273.3672)" fill="#E94A53" font-family="'BebasNeue'" font-size="10">2</text>
		<text transform="matrix(1 0 0 1 755.2325 273.3672)" fill="#E94A53" font-family="'BebasNeue'" font-size="10">1</text>
		<text transform="matrix(1 0 0 1 705.5029 273.3672)" fill="#E94A53" font-family="'BebasNeue'" font-size="10">0</text>
		<text transform="matrix(1 0 0 1 690.5029 273.3672)" fill="#6565AC" font-family="'BebasNeue'" font-size="10">3</text>
		<text transform="matrix(1 0 0 1 670.1368 273.3672)" fill="#6565AC" font-family="'BebasNeue'" font-size="10">2</text>
		<text transform="matrix(1 0 0 1 622.2286 273.3672)" fill="#6565AC" font-family="'BebasNeue'" font-size="10">0,5</text>
		<text transform="matrix(1 0 0 1 599.8477 273.3672)" fill="#6565AC" font-family="'BebasNeue'" font-size="10">0</text>
		<g>
			<text transform="matrix(1 0 0 1 525.1056 273.3672)" fill="#84A45B" font-family="'BebasNeue'" font-size="10">1</text>
		</g>
		<text transform="matrix(1 0 0 1 727.2286 273.3672)" fill="#E94A53" font-family="'BebasNeue'" font-size="10">0,5</text>
		<text transform="matrix(1 0 0 1 565.1095 273.3672)" fill="#84A45B" font-family="'BebasNeue'" font-size="10">5</text>
		<text transform="matrix(1 0 0 1 650.1329 273.3672)" fill="#6565AC" font-family="'BebasNeue'" font-size="10">1</text>
		
			<line fill="none" stroke="#84A45B" stroke-width="2" stroke-miterlimit="10" stroke-opacity="0" x1="592.1" y1="256.5" x2="592.1" y2="257.8"/>
		<line fill="none" stroke="#84A45B" stroke-width="2" stroke-miterlimit="10" x1="597.1" y1="256.5" x2="597.1" y2="257.8"/>
		<text transform="matrix(1 0 0 1 585.1095 273.3672)" fill="#84A45B" font-family="'BebasNeue'" font-size="10">7</text>
		
			<line opacity="0.9" fill="none" stroke="#FFFFFF" stroke-width="2" stroke-miterlimit="10" enable-background="new    " x1="852.1" y1="256.6" x2="852.1" y2="257.9"/>
		<text transform="matrix(1 0 0 1 545.3516 273.3672)" fill="#84A45B" font-family="'BebasNeue'" font-size="10">3</text>
		<text transform="matrix(1 0 0 1 251.4941 273.3672)" fill="#E94A53" font-family="'BebasNeue'" font-size="10">0</text>
		<text transform="matrix(1 0 0 1 357.1491 273.3672)" fill="#6565AC" font-family="'BebasNeue'" font-size="10">0</text>
		<g>
			<text transform="matrix(1 0 0 1 431.2253 273.3672)" fill="#84A45B" font-family="'BebasNeue'" font-size="10">1</text>
		</g>
		<line fill="none" stroke="#E94A53" stroke-width="2" stroke-miterlimit="10" x1="907.3" y1="256.5" x2="907.3" y2="260"/>
		
			<line opacity="0.9" fill="none" stroke="#FFFFFF" stroke-width="2" stroke-miterlimit="10" enable-background="new    " x1="902.3" y1="256.6" x2="902.3" y2="257.9"/>
		<line fill="none" stroke="#E94A53" stroke-width="2" stroke-miterlimit="10" x1="897.3" y1="256.5" x2="897.3" y2="260"/>
		
			<line opacity="0.9" fill="none" stroke="#FFFFFF" stroke-width="2" stroke-miterlimit="10" enable-background="new    " x1="892.3" y1="256.6" x2="892.3" y2="257.9"/>
		<line fill="none" stroke="#E94A53" stroke-width="2" stroke-miterlimit="10" x1="887.3" y1="256.5" x2="887.3" y2="260"/>
		
			<line opacity="0.9" fill="none" stroke="#FFFFFF" stroke-width="2" stroke-miterlimit="10" enable-background="new    " x1="882.3" y1="256.6" x2="882.3" y2="257.9"/>
		<line fill="none" stroke="#E94A53" stroke-width="2" stroke-miterlimit="10" x1="877.3" y1="256.5" x2="877.3" y2="260"/>
		
			<line opacity="0.9" fill="none" stroke="#FFFFFF" stroke-width="2" stroke-miterlimit="10" enable-background="new    " x1="872.3" y1="256.6" x2="872.3" y2="257.9"/>
		<line fill="none" stroke="#E94A53" stroke-width="2" stroke-miterlimit="10" x1="867.3" y1="256.5" x2="867.3" y2="260"/>
		
			<line opacity="0.9" fill="none" stroke="#FFFFFF" stroke-width="2" stroke-miterlimit="10" enable-background="new    " x1="862.3" y1="256.6" x2="862.3" y2="257.9"/>
		<line fill="none" stroke="#E94A53" stroke-width="2" stroke-miterlimit="10" x1="857.3" y1="256.5" x2="857.3" y2="260"/>
		<text transform="matrix(1 0 0 1 895.549 273.3672)" fill="#E94A53" font-family="'BebasNeue'" font-size="10">8</text>
		<text transform="matrix(1 0 0 1 875.5001 273.3672)" fill="#E94A53" font-family="'BebasNeue'" font-size="10">7</text>
		<text transform="matrix(1 0 0 1 855.4541 273.3672)" fill="#E94A53" font-family="'BebasNeue'" font-size="10">6</text>
	</g>
</g>
</svg>
